<svg xmlns="http://www.w3.org/2000/svg" width="900" height="280" viewBox="0 0 900 280" role="img" aria-label="Process — idea to iterate">
  <rect width="900" height="280" fill="#F3EFE6"/>
  <g fill="#17130F" opacity="0.05"><circle cx="219.2" cy="140.6" r="0.5"/><circle cx="145.7" cy="229.9" r="0.5"/><circle cx="208.3" cy="154.7" r="0.5"/><circle cx="833.7" cy="111.3" r="0.5"/><circle cx="871.1" cy="204.8" r="0.5"/><circle cx="493.3" cy="176.1" r="0.5"/><circle cx="527.5" cy="100.9" r="0.5"/><circle cx="897.0" cy="113.1" r="0.5"/><circle cx="885.5" cy="238.7" r="0.5"/><circle cx="25.5" cy="72.3" r="0.5"/><circle cx="430.0" cy="228.1" r="0.5"/><circle cx="159.9" cy="172.4" r="0.5"/><circle cx="330.5" cy="220.0" r="0.5"/><circle cx="833.8" cy="213.4" r="0.5"/><circle cx="174.0" cy="212.9" r="0.5"/><circle cx="394.3" cy="234.4" r="0.5"/><circle cx="423.1" cy="253.9" r="0.5"/><circle cx="887.5" cy="230.8" r="0.5"/><circle cx="743.5" cy="229.3" r="0.5"/><circle cx="532.9" cy="49.0" r="0.5"/><circle cx="887.6" cy="130.0" r="0.5"/><circle cx="14.6" cy="121.6" r="0.5"/><circle cx="373.5" cy="56.2" r="0.5"/><circle cx="864.3" cy="31.4" r="0.5"/><circle cx="813.7" cy="153.9" r="0.5"/><circle cx="160.8" cy="100.3" r="0.5"/><circle cx="405.3" cy="32.9" r="0.5"/><circle cx="686.7" cy="182.4" r="0.5"/><circle cx="884.1" cy="232.4" r="0.5"/><circle cx="707.4" cy="279.1" r="0.5"/><circle cx="838.7" cy="180.3" r="0.5"/><circle cx="485.3" cy="146.6" r="0.5"/><circle cx="732.5" cy="259.1" r="0.5"/><circle cx="747.5" cy="235.0" r="0.5"/><circle cx="24.6" cy="117.8" r="0.5"/><circle cx="78.5" cy="163.9" r="0.5"/><circle cx="522.1" cy="157.0" r="0.5"/><circle cx="772.2" cy="63.0" r="0.5"/><circle cx="656.0" cy="164.2" r="0.5"/><circle cx="191.8" cy="274.0" r="0.5"/><circle cx="48.2" cy="130.2" r="0.5"/><circle cx="482.0" cy="166.8" r="0.5"/><circle cx="883.8" cy="154.4" r="0.5"/><circle cx="798.0" cy="82.5" r="0.5"/><circle cx="433.3" cy="41.1" r="0.5"/><circle cx="575.7" cy="118.2" r="0.5"/><circle cx="706.4" cy="31.5" r="0.5"/><circle cx="417.9" cy="268.4" r="0.5"/><circle cx="10.1" cy="184.9" r="0.5"/><circle cx="609.7" cy="203.2" r="0.5"/><circle cx="501.6" cy="140.2" r="0.5"/><circle cx="863.5" cy="79.3" r="0.5"/><circle cx="633.4" cy="187.2" r="0.5"/><circle cx="655.5" cy="133.8" r="0.5"/><circle cx="15.1" cy="217.1" r="0.5"/><circle cx="251.3" cy="219.0" r="0.5"/><circle cx="888.4" cy="217.4" r="0.5"/><circle cx="362.6" cy="240.0" r="0.5"/><circle cx="347.3" cy="89.6" r="0.5"/><circle cx="514.0" cy="183.0" r="0.5"/><circle cx="617.3" cy="154.7" r="0.5"/><circle cx="367.9" cy="207.9" r="0.5"/><circle cx="292.0" cy="169.8" r="0.5"/><circle cx="4.9" cy="36.7" r="0.5"/><circle cx="780.7" cy="60.3" r="0.5"/><circle cx="371.4" cy="14.9" r="0.5"/><circle cx="688.6" cy="92.0" r="0.5"/><circle cx="44.0" cy="76.7" r="0.5"/><circle cx="837.5" cy="211.6" r="0.5"/><circle cx="2.8" cy="267.0" r="0.5"/><circle cx="65.1" cy="135.6" r="0.5"/><circle cx="481.0" cy="219.3" r="0.5"/><circle cx="127.3" cy="231.0" r="0.5"/><circle cx="246.7" cy="206.7" r="0.5"/><circle cx="834.2" cy="165.2" r="0.5"/><circle cx="1.7" cy="186.8" r="0.5"/><circle cx="391.7" cy="204.5" r="0.5"/><circle cx="706.0" cy="30.1" r="0.5"/><circle cx="511.0" cy="180.2" r="0.5"/><circle cx="833.9" cy="171.9" r="0.5"/><circle cx="553.4" cy="215.3" r="0.5"/><circle cx="143.9" cy="240.7" r="0.5"/><circle cx="523.0" cy="178.1" r="0.5"/><circle cx="139.2" cy="146.5" r="0.5"/><circle cx="368.4" cy="57.6" r="0.5"/><circle cx="847.2" cy="236.9" r="0.5"/><circle cx="413.1" cy="21.0" r="0.5"/><circle cx="885.4" cy="33.0" r="0.5"/><circle cx="456.2" cy="158.3" r="0.5"/><circle cx="769.9" cy="183.7" r="0.5"/><circle cx="543.3" cy="143.6" r="0.5"/><circle cx="880.5" cy="229.6" r="0.5"/><circle cx="320.6" cy="222.6" r="0.5"/><circle cx="852.9" cy="136.1" r="0.5"/><circle cx="76.3" cy="18.8" r="0.5"/><circle cx="870.7" cy="58.2" r="0.5"/><circle cx="723.7" cy="54.1" r="0.5"/><circle cx="201.8" cy="45.0" r="0.5"/><circle cx="733.9" cy="25.7" r="0.5"/><circle cx="424.5" cy="226.5" r="0.5"/><circle cx="474.4" cy="2.6" r="0.5"/><circle cx="15.0" cy="232.8" r="0.5"/><circle cx="270.2" cy="23.3" r="0.5"/><circle cx="472.9" cy="219.6" r="0.5"/><circle cx="272.8" cy="37.5" r="0.5"/><circle cx="167.0" cy="132.8" r="0.5"/><circle cx="701.8" cy="23.2" r="0.5"/><circle cx="684.9" cy="190.9" r="0.5"/><circle cx="502.0" cy="107.2" r="0.5"/><circle cx="28.7" cy="141.1" r="0.5"/><circle cx="370.4" cy="190.1" r="0.5"/><circle cx="56.1" cy="46.4" r="0.5"/><circle cx="16.8" cy="136.3" r="0.5"/><circle cx="53.4" cy="149.3" r="0.5"/><circle cx="393.3" cy="92.6" r="0.5"/><circle cx="171.1" cy="257.8" r="0.5"/><circle cx="432.5" cy="28.6" r="0.5"/><circle cx="520.0" cy="213.7" r="0.5"/><circle cx="439.4" cy="249.5" r="0.5"/><circle cx="754.7" cy="190.6" r="0.5"/><circle cx="23.6" cy="112.6" r="0.5"/><circle cx="459.6" cy="47.4" r="0.5"/><circle cx="449.9" cy="187.1" r="0.5"/><circle cx="677.2" cy="212.7" r="0.5"/><circle cx="672.7" cy="84.0" r="0.5"/><circle cx="550.8" cy="140.3" r="0.5"/><circle cx="682.6" cy="34.1" r="0.5"/><circle cx="158.4" cy="200.7" r="0.5"/><circle cx="651.6" cy="64.3" r="0.5"/><circle cx="691.5" cy="217.3" r="0.5"/><circle cx="582.0" cy="129.2" r="0.5"/><circle cx="51.5" cy="64.5" r="0.5"/><circle cx="689.0" cy="260.9" r="0.5"/><circle cx="148.2" cy="10.3" r="0.5"/><circle cx="314.3" cy="263.3" r="0.5"/><circle cx="194.7" cy="261.5" r="0.5"/><circle cx="705.7" cy="235.3" r="0.5"/><circle cx="891.8" cy="189.2" r="0.5"/><circle cx="178.0" cy="121.4" r="0.5"/><circle cx="357.4" cy="186.2" r="0.5"/><circle cx="318.0" cy="204.8" r="0.5"/><circle cx="27.0" cy="62.3" r="0.5"/><circle cx="199.8" cy="47.8" r="0.5"/><circle cx="674.4" cy="245.3" r="0.5"/><circle cx="85.2" cy="133.5" r="0.5"/><circle cx="7.5" cy="69.3" r="0.5"/><circle cx="130.1" cy="193.9" r="0.5"/><circle cx="752.4" cy="235.9" r="0.5"/><circle cx="247.3" cy="114.7" r="0.5"/><circle cx="207.8" cy="185.8" r="0.5"/><circle cx="206.0" cy="214.6" r="0.5"/></g>
  <rect x="10" y="10" width="880" height="260" fill="none" stroke="#17130F" stroke-width="1.5"/>

  <text x="44" y="46" fill="#17130F" font-family="Arial,Helvetica,sans-serif" font-size="13" font-weight="700" letter-spacing="2">PROCESS</text>
  <text x="856" y="46" fill="#9A9182" font-family="'Courier New',ui-monospace,SFMono-Regular,Menlo,monospace" font-size="11" text-anchor="end">6 STAGES</text>
  <line x1="44" y1="58" x2="856" y2="58" stroke="#17130F" stroke-width="2"/>

  <path d="M 840.0 108 C 840.0 80, 60.0 80, 60.0 108"
        fill="none" stroke="#D8432A" stroke-width="1.5" stroke-dasharray="5 5" opacity="0.75"/>
  <path d="M55.0,100 L60.0,110 L65.0,100 Z" fill="#D8432A" opacity="0.85"/>
  <text x="450.0" y="74" text-anchor="middle" fill="#A5311C" font-family="Arial,Helvetica,sans-serif" font-size="10.5" font-weight="700" letter-spacing="2">FEEDBACK LOOP</text>

  <line x1="70.0" y1="140" x2="206.0" y2="140" stroke="#17130F" stroke-width="1.5"/><line x1="226.0" y1="140" x2="362.0" y2="140" stroke="#17130F" stroke-width="1.5"/><line x1="382.0" y1="140" x2="518.0" y2="140" stroke="#17130F" stroke-width="1.5"/><line x1="538.0" y1="140" x2="674.0" y2="140" stroke="#17130F" stroke-width="1.5"/><line x1="694.0" y1="140" x2="830.0" y2="140" stroke="#17130F" stroke-width="1.5"/>
  <circle r="3" fill="#D8432A">
      <animate attributeName="cx" values="70.0;206.0" dur="1.8s" begin="0.0s" repeatCount="indefinite"/>
      <animate attributeName="cy" values="140;140" dur="1.8s" repeatCount="indefinite"/>
    </circle><circle r="3" fill="#D8432A">
      <animate attributeName="cx" values="226.0;362.0" dur="1.8s" begin="0.3s" repeatCount="indefinite"/>
      <animate attributeName="cy" values="140;140" dur="1.8s" repeatCount="indefinite"/>
    </circle><circle r="3" fill="#D8432A">
      <animate attributeName="cx" values="382.0;518.0" dur="1.8s" begin="0.6s" repeatCount="indefinite"/>
      <animate attributeName="cy" values="140;140" dur="1.8s" repeatCount="indefinite"/>
    </circle><circle r="3" fill="#D8432A">
      <animate attributeName="cx" values="538.0;674.0" dur="1.8s" begin="0.8999999999999999s" repeatCount="indefinite"/>
      <animate attributeName="cy" values="140;140" dur="1.8s" repeatCount="indefinite"/>
    </circle><circle r="3" fill="#D8432A">
      <animate attributeName="cx" values="694.0;830.0" dur="1.8s" begin="1.2s" repeatCount="indefinite"/>
      <animate attributeName="cy" values="140;140" dur="1.8s" repeatCount="indefinite"/>
    </circle>
  <rect x="54.0" y="134" width="12" height="12" fill="#F3EFE6" stroke="#17130F" stroke-width="2"/><text x="60.0" y="174" text-anchor="middle" fill="#17130F" font-family="Arial,Helvetica,sans-serif" font-size="11.5" font-weight="700" letter-spacing="0.5">IDEA</text><text x="60.0" y="122" text-anchor="middle" fill="#9A9182" font-family="'Courier New',ui-monospace,SFMono-Regular,Menlo,monospace" font-size="10">01</text><rect x="210.0" y="134" width="12" height="12" fill="#F3EFE6" stroke="#17130F" stroke-width="2"/><text x="216.0" y="174" text-anchor="middle" fill="#17130F" font-family="Arial,Helvetica,sans-serif" font-size="11.5" font-weight="700" letter-spacing="0.5">PROTOTYPE</text><text x="216.0" y="122" text-anchor="middle" fill="#9A9182" font-family="'Courier New',ui-monospace,SFMono-Regular,Menlo,monospace" font-size="10">02</text><rect x="366.0" y="134" width="12" height="12" fill="#F3EFE6" stroke="#17130F" stroke-width="2"/><text x="372.0" y="174" text-anchor="middle" fill="#17130F" font-family="Arial,Helvetica,sans-serif" font-size="11.5" font-weight="700" letter-spacing="0.5">ENGINEERING</text><text x="372.0" y="122" text-anchor="middle" fill="#9A9182" font-family="'Courier New',ui-monospace,SFMono-Regular,Menlo,monospace" font-size="10">03</text><rect x="522.0" y="134" width="12" height="12" fill="#F3EFE6" stroke="#17130F" stroke-width="2"/><text x="528.0" y="174" text-anchor="middle" fill="#17130F" font-family="Arial,Helvetica,sans-serif" font-size="11.5" font-weight="700" letter-spacing="0.5">TESTING</text><text x="528.0" y="122" text-anchor="middle" fill="#9A9182" font-family="'Courier New',ui-monospace,SFMono-Regular,Menlo,monospace" font-size="10">04</text><rect x="678.0" y="134" width="12" height="12" fill="#F3EFE6" stroke="#17130F" stroke-width="2"/><text x="684.0" y="174" text-anchor="middle" fill="#17130F" font-family="Arial,Helvetica,sans-serif" font-size="11.5" font-weight="700" letter-spacing="0.5">DEPLOY</text><text x="684.0" y="122" text-anchor="middle" fill="#9A9182" font-family="'Courier New',ui-monospace,SFMono-Regular,Menlo,monospace" font-size="10">05</text><rect x="834.0" y="134" width="12" height="12" fill="#F3EFE6" stroke="#D8432A" stroke-width="2"/><text x="840.0" y="174" text-anchor="middle" fill="#17130F" font-family="Arial,Helvetica,sans-serif" font-size="11.5" font-weight="700" letter-spacing="0.5">ITERATE</text><text x="840.0" y="122" text-anchor="middle" fill="#9A9182" font-family="'Courier New',ui-monospace,SFMono-Regular,Menlo,monospace" font-size="10">06</text>

  <line x1="44" y1="196" x2="856" y2="196" stroke="#CBC2AC" stroke-width="1"/>
  <text x="450.0" y="232" text-anchor="middle" fill="#17130F" font-family="Arial,Helvetica,sans-serif" font-size="17" font-weight="700">I don&#8217;t just experiment with AI.</text>
  <text x="450.0" y="256" text-anchor="middle" fill="#D8432A" font-family="Arial,Helvetica,sans-serif" font-size="17" font-weight="700">I build systems around it.</text>
</svg>
